<?xml version="1.0" standalone="no"?>
<!DOCTYPE svg PUBLIC "-//W3C//DTD SVG 20010904//EN"
 "http://www.w3.org/TR/2001/REC-SVG-20010904/DTD/svg10.dtd">
<svg version="1.0" xmlns="http://www.w3.org/2000/svg"
 width="512.000000pt" height="512.000000pt" viewBox="0 0 512.000000 512.000000"
 preserveAspectRatio="xMidYMid meet">
<metadata>
Created by potrace 1.14, written by Peter Selinger 2001-2017
</metadata>
<g transform="translate(0.000000,512.000000) scale(0.100000,-0.100000)"
fill="#000000" stroke="none">
<path d="M1805 3899 c-34 -9 -44 -19 -270 -234 -88 -84 -180 -172 -205 -195
-25 -23 -110 -104 -189 -179 -212 -202 -234 -223 -407 -386 -87 -82 -173 -164
-191 -182 -67 -64 -93 -175 -59 -255 18 -42 38 -63 247 -258 79 -74 173 -163
209 -196 130 -123 149 -141 281 -265 74 -69 148 -138 164 -154 17 -15 93 -87
170 -159 233 -221 228 -217 274 -218 81 -2 141 70 120 146 -11 41 -18 48 -219
236 -68 63 -140 131 -160 150 -20 19 -102 96 -181 170 -79 74 -182 171 -229
216 -47 44 -111 105 -144 135 -32 30 -82 77 -111 104 -29 28 -83 79 -120 115
l-67 64 104 101 c57 55 178 170 268 255 89 85 210 200 268 255 58 55 122 116
142 135 389 367 450 427 452 454 0 12 2 28 3 36 2 17 -22 68 -39 85 -9 9 -76
38 -80 34 -1 0 -15 -5 -31 -10z"/>
<path d="M3254 3899 c-56 -15 -94 -77 -86 -140 4 -35 16 -47 447 -454 27 -25
126 -120 380 -360 23 -22 113 -107 200 -190 189 -179 205 -195 205 -200 0 -3
-32 -35 -72 -72 -39 -38 -88 -84 -108 -103 -50 -47 -286 -270 -330 -310 -19
-18 -94 -89 -167 -157 -73 -69 -145 -136 -160 -150 -15 -14 -91 -86 -168 -158
-77 -73 -155 -147 -174 -164 -42 -39 -62 -93 -50 -135 18 -62 84 -101 144 -85
32 9 45 20 254 218 73 69 141 133 151 141 9 8 77 72 151 141 74 70 152 144
174 164 92 87 301 283 339 319 23 21 83 77 133 124 106 97 134 145 135 224 1
97 -10 111 -278 364 -76 72 -164 155 -194 184 -270 256 -388 369 -410 390 -15
14 -105 99 -200 190 -95 91 -178 170 -184 175 -46 42 -87 55 -132 44z"/>
</g>
</svg>
