<?xml version="1.0" standalone="no"?>
<!DOCTYPE svg PUBLIC "-//W3C//DTD SVG 20010904//EN"
 "http://www.w3.org/TR/2001/REC-SVG-20010904/DTD/svg10.dtd">
<svg version="1.0" xmlns="http://www.w3.org/2000/svg"
 width="512.000000pt" height="512.000000pt" viewBox="0 0 512.000000 512.000000"
 preserveAspectRatio="xMidYMid meet">
<metadata>
Created by potrace 1.14, written by Peter Selinger 2001-2017
</metadata>
<g transform="translate(0.000000,512.000000) scale(0.100000,-0.100000)"
fill="#000000" stroke="none">
<path d="M2918 4405 c-2 -2 -25 -5 -53 -9 -81 -9 -113 -16 -194 -42 -263 -86
-479 -266 -606 -507 -43 -81 -93 -214 -102 -272 -3 -16 -9 -50 -13 -75 -14
-75 -9 -249 10 -325 23 -93 65 -198 107 -263 18 -29 33 -54 33 -57 0 -4 -17
-7 -90 -19 -104 -16 -242 -44 -295 -57 -22 -6 -48 -13 -58 -15 -61 -11 -261
-43 -307 -49 -30 -4 -67 -8 -81 -11 -117 -18 -277 -28 -454 -27 -210 0 -321
15 -429 59 -33 13 -61 24 -63 24 -5 0 6 -369 12 -435 16 -170 24 -241 30 -275
2 -14 7 -45 10 -70 11 -77 43 -226 69 -313 106 -367 263 -602 506 -761 102
-66 284 -139 405 -160 253 -46 300 -49 880 -52 281 -1 663 -3 850 -4 187 -1
365 1 395 4 89 10 154 18 175 21 11 2 40 6 65 10 72 11 220 62 283 97 241 136
356 382 358 768 2 316 -127 626 -353 851 -81 81 -239 199 -287 214 -19 6 -12
15 58 81 44 41 103 110 132 155 39 58 57 78 68 74 47 -19 286 -25 446 -12 84
6 113 10 175 22 14 3 36 7 49 10 41 8 115 35 134 50 35 26 12 49 -106 105
-211 99 -413 225 -572 355 -67 56 -70 59 -92 138 -116 400 -440 691 -843 758
-58 10 -245 20 -252 14z"/>
</g>
</svg>
